<svg width="962" height="268" viewBox="0 0 962 268" fill="none" xmlns="http://www.w3.org/2000/svg">
    <path d="M256.195 103.2L221.595 176.8L186.995 103.2H170.795L214.595 196H228.595L272.395 103.2H256.195Z"
          fill="black"/>
    <path
        d="M325.445 100.8C297.045 100.8 276.045 121.6 276.045 149.6C276.045 177.6 297.045 198.4 325.445 198.4C353.645 198.4 374.645 177.6 374.645 149.6C374.645 121.6 353.645 100.8 325.445 100.8ZM325.445 184.4C305.845 184.4 291.245 169.6 291.245 149.6C291.245 129.6 305.845 114.8 325.445 114.8C344.845 114.8 359.245 129.6 359.245 149.6C359.245 169.6 344.845 184.4 325.445 184.4Z"
        fill="black"/>
    <path d="M395.548 54V196H410.748V54H395.548Z" fill="black"/>
    <path
        d="M496.999 181C491.999 182.8 486.199 184.2 480.999 184.2C467.799 184.2 460.999 177.6 460.999 161.6V116.2H495.999V103.2H460.999V69H445.799V103.2H421.599V116.2H445.799V161.6C445.799 185.8 456.799 198.4 479.599 198.4C485.199 198.4 491.599 197.6 499.199 195L496.999 181Z"
        fill="black"/>
    <path
        d="M610.829 99V104C603.629 99.2 595.029 96.4 584.229 96.4C558.029 96.4 536.029 118.4 536.029 147.4C536.029 176.2 558.029 198.6 584.229 198.6C595.029 198.6 603.629 195.6 610.829 190.8V196H643.229V99H610.829ZM590.829 171C577.629 171 567.829 160.8 567.829 147.4C567.829 134 577.629 123.8 590.829 123.8C597.829 123.8 604.629 125.6 610.829 132.4V162.4C604.629 169.2 597.829 171 590.829 171Z"
        fill="#FF3737"/>
    <path
        d="M726.034 99V159.8C720.434 166 714.234 169.4 708.234 169.4C697.634 169.4 690.434 162.8 690.434 149V99H658.034V154C658.034 181.6 674.834 198.6 699.434 198.6C709.834 198.6 718.234 195.2 726.034 189.2V196H758.434V99H726.034Z"
        fill="#FF3737"/>
    <path
        d="M848.723 164.8C842.923 167 837.723 168.8 831.523 168.8C822.123 168.8 816.323 164.2 816.323 154.2V126.8H849.323V99H816.323V66H783.923V99H764.923V126.8H783.923V155.2C783.923 181.4 799.923 198.6 826.323 198.6C831.923 198.6 842.323 198 852.323 193.8L848.723 164.8Z"
        fill="#FF3737"/>
    <path
        d="M908.148 96.4C876.948 96.4 854.748 117.8 854.748 147.6C854.748 177.6 876.948 198.6 908.148 198.6C939.348 198.6 961.348 177.6 961.348 147.6C961.348 117.8 939.348 96.4 908.148 96.4ZM908.148 171.6C894.548 171.6 885.148 161.8 885.148 147.6C885.148 133.6 894.548 123.6 908.148 123.6C921.548 123.6 930.948 133.6 930.948 147.6C930.948 161.8 921.548 171.6 908.148 171.6Z"
        fill="#FF3737"/>
    <path fill-rule="evenodd" clip-rule="evenodd" d="M61.2565 0L0.507446 160.272L72.764 162.511L61.2565 0Z"
          fill="#FF3737"/>
    <path fill-rule="evenodd" clip-rule="evenodd" d="M56.6288 267.546L117.398 107.224L49.0179 105.441L56.6288 267.546Z"
          fill="#FF3737"/>
</svg>
