<svg width="1166" height="306" viewBox="0 0 1166 306" fill="none" xmlns="http://www.w3.org/2000/svg">
    <path d="M703.128 183.132C689.128 183.132 680.928 172.532 680.928 159.332C680.928 146.132 689.128 135.732 703.128 135.732C712.928 135.732 720.528 141.932 722.128 150.732H752.728C750.328 125.732 729.728 108.332 702.928 108.332C672.528 108.332 649.928 129.932 649.928 159.332C649.928 188.932 672.528 210.532 702.928 210.532C729.728 210.532 750.328 193.132 752.728 168.132H722.128C720.528 176.932 712.928 183.132 703.128 183.132Z" fill="#FF4E50"/>
    <path d="M888.181 108.332C875.581 108.332 865.581 112.132 855.981 120.332C848.981 112.332 838.781 108.332 826.381 108.332C815.581 108.332 808.181 111.532 801.381 116.932V110.932H768.781V207.932H801.381V145.932C806.181 140.132 811.781 137.732 818.181 137.732C826.381 137.732 833.181 141.532 833.181 154.732V207.932H865.581V150.732C865.581 148.732 865.581 146.932 865.381 145.132C870.381 139.532 875.581 137.732 881.381 137.732C890.581 137.732 897.381 142.532 897.381 155.732V207.932H929.781V151.732C929.781 123.732 913.381 108.332 888.181 108.332Z" fill="#FF4E50"/>
    <path d="M972.817 174.732L944.017 174.532C946.217 200.332 966.817 210.532 991.817 210.532C1017.22 210.532 1037.22 200.532 1037.22 178.132C1037.22 160.932 1025.02 152.132 1007.02 148.732L989.017 145.732C981.217 144.332 978.817 141.332 978.817 137.932C978.817 134.332 982.617 131.332 991.017 131.332C1000.02 131.332 1007.02 134.532 1007.62 141.732H1036.22C1034.82 116.132 1014.02 108.332 991.017 108.332C965.217 108.332 947.817 120.332 947.817 140.732C947.817 157.732 959.617 167.132 976.217 169.932L995.817 173.332C1002.22 174.332 1006.02 176.732 1006.02 180.132C1006.02 184.332 1000.62 186.732 992.017 186.732C981.817 186.732 974.217 183.132 972.817 174.732Z" fill="#FF4E50"/>
    <path d="M374.4 116.2L339.8 189.8L305.2 116.2H289L332.8 209H346.8L390.6 116.2H374.4Z" fill="black"/>
    <path d="M449.65 113.8C421.25 113.8 400.25 134.6 400.25 162.6C400.25 190.6 421.25 211.4 449.65 211.4C477.85 211.4 498.85 190.6 498.85 162.6C498.85 134.6 477.85 113.8 449.65 113.8ZM449.65 197.4C430.05 197.4 415.45 182.6 415.45 162.6C415.45 142.6 430.05 127.8 449.65 127.8C469.05 127.8 483.45 142.6 483.45 162.6C483.45 182.6 469.05 197.4 449.65 197.4Z" fill="black"/>
    <path d="M525.753 67V209H540.953V67H525.753Z" fill="black"/>
    <path d="M633.205 194C628.205 195.8 622.405 197.2 617.205 197.2C604.005 197.2 597.205 190.6 597.205 174.6V129.2H632.205V116.2H597.205V82H582.005V116.2H557.805V129.2H582.005V174.6C582.005 198.8 593.005 211.4 615.805 211.4C621.405 211.4 627.805 210.6 635.405 208L633.205 194Z" fill="black"/>
    <path fill-rule="evenodd" clip-rule="evenodd" d="M159.624 19.0001L95.946 179.715L168.248 181.035L159.624 19.0001Z" fill="#FF4E50"/>
    <path fill-rule="evenodd" clip-rule="evenodd" d="M151.476 286.546L215.163 125.803L146.746 124.889L151.476 286.546Z" fill="#FF4E50"/>
</svg>
